<mxfile host="Electron" agent="Mozilla/5.0 (Windows NT 10.0; Win64; x64) AppleWebKit/537.36 (KHTML, like Gecko) draw.io/24.7.17 Chrome/128.0.6613.36 Electron/32.0.1 Safari/537.36" version="24.7.17">
  <diagram name="Page-1" id="a278FM424tYcKPuDRqcV">
    <mxGraphModel dx="954" dy="705" grid="1" gridSize="10" guides="1" tooltips="1" connect="1" arrows="1" fold="1" page="1" pageScale="1" pageWidth="850" pageHeight="1100" math="0" shadow="0">
      <root>
        <mxCell id="0" />
        <mxCell id="1" parent="0" />
        <mxCell id="-vBIYFzw09cd0svmqpcF-4" value="Published&lt;div&gt;Events&lt;/div&gt;" style="edgeStyle=orthogonalEdgeStyle;rounded=0;orthogonalLoop=1;jettySize=auto;html=1;strokeWidth=2;labelBackgroundColor=none;" edge="1" parent="1" source="-vBIYFzw09cd0svmqpcF-1" target="-vBIYFzw09cd0svmqpcF-3">
          <mxGeometry y="20" relative="1" as="geometry">
            <mxPoint as="offset" />
          </mxGeometry>
        </mxCell>
        <mxCell id="-vBIYFzw09cd0svmqpcF-1" value="WebUI" style="rounded=1;whiteSpace=wrap;html=1;fillColor=#dae8fc;strokeColor=#6c8ebf;" vertex="1" parent="1">
          <mxGeometry x="100" y="320" width="120" height="60" as="geometry" />
        </mxCell>
        <mxCell id="-vBIYFzw09cd0svmqpcF-6" style="edgeStyle=orthogonalEdgeStyle;rounded=0;orthogonalLoop=1;jettySize=auto;html=1;exitX=0.5;exitY=0;exitDx=0;exitDy=0;entryX=0.5;entryY=0;entryDx=0;entryDy=0;strokeWidth=2;" edge="1" parent="1" source="-vBIYFzw09cd0svmqpcF-3" target="-vBIYFzw09cd0svmqpcF-1">
          <mxGeometry relative="1" as="geometry">
            <Array as="points">
              <mxPoint x="420" y="290" />
              <mxPoint x="160" y="290" />
            </Array>
          </mxGeometry>
        </mxCell>
        <mxCell id="-vBIYFzw09cd0svmqpcF-7" value="Subscribed&lt;div&gt;Events&lt;/div&gt;" style="edgeLabel;html=1;align=center;verticalAlign=middle;resizable=0;points=[];labelBackgroundColor=none;" vertex="1" connectable="0" parent="-vBIYFzw09cd0svmqpcF-6">
          <mxGeometry y="-4" relative="1" as="geometry">
            <mxPoint y="-16" as="offset" />
          </mxGeometry>
        </mxCell>
        <mxCell id="-vBIYFzw09cd0svmqpcF-3" value="EventHub&lt;div&gt;(effe)&lt;/div&gt;" style="rounded=1;whiteSpace=wrap;html=1;fillColor=#dae8fc;strokeColor=#6c8ebf;" vertex="1" parent="1">
          <mxGeometry x="360" y="320" width="120" height="60" as="geometry" />
        </mxCell>
        <mxCell id="-vBIYFzw09cd0svmqpcF-9" value="" style="edgeStyle=orthogonalEdgeStyle;rounded=0;orthogonalLoop=1;jettySize=auto;html=1;strokeWidth=2;" edge="1" parent="1" source="-vBIYFzw09cd0svmqpcF-8" target="-vBIYFzw09cd0svmqpcF-3">
          <mxGeometry relative="1" as="geometry" />
        </mxCell>
        <mxCell id="-vBIYFzw09cd0svmqpcF-10" value="Subscribes&lt;div&gt;to External&lt;/div&gt;&lt;div&gt;Event channel(s)&lt;/div&gt;" style="edgeLabel;html=1;align=center;verticalAlign=middle;resizable=0;points=[];labelBackgroundColor=none;" vertex="1" connectable="0" parent="-vBIYFzw09cd0svmqpcF-9">
          <mxGeometry x="0.2" y="-3" relative="1" as="geometry">
            <mxPoint x="12" y="-27" as="offset" />
          </mxGeometry>
        </mxCell>
        <mxCell id="-vBIYFzw09cd0svmqpcF-11" style="edgeStyle=orthogonalEdgeStyle;rounded=0;orthogonalLoop=1;jettySize=auto;html=1;entryX=0.5;entryY=1;entryDx=0;entryDy=0;exitX=0.5;exitY=1;exitDx=0;exitDy=0;strokeWidth=2;" edge="1" parent="1" source="-vBIYFzw09cd0svmqpcF-8" target="-vBIYFzw09cd0svmqpcF-3">
          <mxGeometry relative="1" as="geometry">
            <Array as="points">
              <mxPoint x="690" y="420" />
              <mxPoint x="420" y="420" />
            </Array>
          </mxGeometry>
        </mxCell>
        <mxCell id="-vBIYFzw09cd0svmqpcF-12" value="Publish Event" style="edgeLabel;html=1;align=center;verticalAlign=middle;resizable=0;points=[];labelBackgroundColor=none;" vertex="1" connectable="0" parent="-vBIYFzw09cd0svmqpcF-11">
          <mxGeometry x="-0.0143" y="1" relative="1" as="geometry">
            <mxPoint y="-16" as="offset" />
          </mxGeometry>
        </mxCell>
        <mxCell id="-vBIYFzw09cd0svmqpcF-14" value="" style="edgeStyle=orthogonalEdgeStyle;rounded=0;orthogonalLoop=1;jettySize=auto;html=1;startArrow=classic;startFill=1;strokeWidth=2;" edge="1" parent="1" source="-vBIYFzw09cd0svmqpcF-8" target="-vBIYFzw09cd0svmqpcF-13">
          <mxGeometry relative="1" as="geometry" />
        </mxCell>
        <mxCell id="-vBIYFzw09cd0svmqpcF-17" value="WebSocket&lt;div&gt;Messages&lt;/div&gt;" style="edgeLabel;html=1;align=center;verticalAlign=middle;resizable=0;points=[];labelBackgroundColor=none;" vertex="1" connectable="0" parent="-vBIYFzw09cd0svmqpcF-14">
          <mxGeometry x="-0.2167" y="3" relative="1" as="geometry">
            <mxPoint x="13" y="-17" as="offset" />
          </mxGeometry>
        </mxCell>
        <mxCell id="-vBIYFzw09cd0svmqpcF-8" value="Connector&lt;div&gt;(WebSocket)&lt;/div&gt;" style="rounded=1;whiteSpace=wrap;html=1;fillColor=#d5e8d4;strokeColor=#82b366;" vertex="1" parent="1">
          <mxGeometry x="630" y="320" width="120" height="60" as="geometry" />
        </mxCell>
        <mxCell id="-vBIYFzw09cd0svmqpcF-13" value="WebSocket&lt;div&gt;Server&lt;/div&gt;" style="image;aspect=fixed;perimeter=ellipsePerimeter;html=1;align=center;shadow=0;dashed=0;spacingTop=3;image=img/lib/active_directory/sql_server.svg;labelBackgroundColor=none;" vertex="1" parent="1">
          <mxGeometry x="870" y="295" width="84.7" height="110" as="geometry" />
        </mxCell>
      </root>
    </mxGraphModel>
  </diagram>
</mxfile>
